<?xml version="1.0" standalone="no"?>
<!DOCTYPE svg PUBLIC "-//W3C//DTD SVG 20010904//EN"
 "http://www.w3.org/TR/2001/REC-SVG-20010904/DTD/svg10.dtd">
<svg version="1.0" xmlns="http://www.w3.org/2000/svg"
 width="276.000000pt" height="183.000000pt" viewBox="0 0 276.000000 183.000000"
 preserveAspectRatio="xMidYMid meet">
<metadata>
Created by potrace 1.15, written by Peter Selinger 2001-2017
</metadata>
<g transform="translate(0.000000,183.000000) scale(0.100000,-0.100000)"
fill="#000000" stroke="none">
<path d="M1225 1389 c-49 -33 -96 -63 -103 -66 -7 -3 -28 7 -47 21 -38 29 -40
28 -26 -22 6 -18 6 -32 1 -32 -5 0 -52 27 -104 60 -53 33 -98 60 -101 60 -3 0
26 -63 65 -140 38 -77 70 -142 70 -144 0 -3 -17 -2 -37 0 -29 4 -34 3 -23 -5
11 -8 -5 -11 -62 -11 l-77 0 -40 -59 -40 -58 -131 -38 -131 -39 3 -55 c3 -53
5 -56 43 -78 52 -30 55 -29 55 11 0 46 21 60 92 61 67 0 88 -16 88 -67 0 -28
1 -28 24 -13 23 15 126 33 126 22 0 -3 -9 -27 -20 -53 -11 -26 -19 -48 -18
-49 2 -2 53 6 113 16 144 25 137 26 119 -16 -17 -41 -16 -41 36 -15 22 11 41
20 43 20 2 0 36 -38 77 -85 41 -47 76 -85 80 -85 3 0 23 29 44 65 38 65 52 75
74 53 9 -9 12 -5 12 18 0 42 9 50 65 58 72 10 87 16 81 31 -7 18 84 30 162 20
92 -11 139 -25 163 -51 28 -30 60 -31 85 -3 10 12 45 34 77 50 32 17 60 36 64
44 3 9 2 35 -1 59 l-7 43 -82 22 c-188 51 -179 47 -212 101 l-29 50 -96 0
c-114 0 -134 8 -93 38 l28 21 -43 1 c-36 0 -43 3 -38 18 12 44 27 134 23 139
-3 2 -23 -7 -44 -21 -44 -30 -53 -32 -53 -10 0 13 -6 12 -36 -6 -19 -12 -36
-21 -38 -19 -2 2 -18 48 -37 101 -19 54 -38 98 -44 97 -5 0 -50 -28 -100 -60z"/>
</g>
</svg>
